<svg width="29" height="29" viewBox="0 0 29 29" fill="none" xmlns="http://www.w3.org/2000/svg">
<g id="SVG" clip-path="url(#clip0_1_248)">
<path id="Vector" d="M2.32001 18.3001C0.88501 10.6701 4.70001 3.28512 13.38 2.30512C12.9259 1.8246 12.3556 1.46913 11.7242 1.27296C11.0928 1.0768 10.4215 1.04654 9.77501 1.18512C8.44501 1.60512 8.48001 2.48012 6.97501 3.60012C5.50501 4.44012 4.73501 3.77512 3.65001 4.68512C2.56501 5.56012 3.30001 7.59012 2.84501 7.97512C2.39001 8.78012 0.99001 9.48012 0.71001 10.4601C0.50001 11.7201 1.27001 12.6301 1.27001 13.7501C1.37501 14.6601 0.36001 15.1851 0.50001 15.9201C0.92001 17.1101 1.76001 17.8451 2.14501 18.1951C2.25001 18.2301 2.35501 18.3701 2.32001 18.3001Z" fill="#FF0090"/>
<path id="Vector_2" d="M17.825 7.73014C17.6765 7.73014 17.534 7.67114 17.429 7.56612C17.324 7.4611 17.265 7.31866 17.265 7.17014C17.265 6.85514 17.51 6.61014 17.825 6.61014C18.14 6.61014 18.385 6.85514 18.385 7.17014C18.385 7.48514 18.14 7.73014 17.825 7.73014ZM2.66999 19.1401C1.26999 12.4901 5.53999 6.96014 13.8 9.69014C18.665 12.5251 24.755 12.3501 25.035 10.4951C25.735 8.29014 21.955 3.77514 16.32 2.58514C5.11999 0.415142 -0.900007 12.4901 2.66999 19.1401Z" fill="url(#paint0_radial_1_248)"/>
<path id="Vector_3" d="M21.01 19.875C21.846 19.9766 22.694 19.9048 23.5009 19.6639C24.3079 19.423 25.0565 19.0183 25.7 18.475C23.6118 20.8112 20.7036 22.2528 17.58 22.5C19.085 23.795 20.555 24.355 21.955 24.11C18.07 25.195 14.815 24.005 10.895 20.085C10.685 21.135 11.805 22.78 12.96 23.83C6.24001 20.925 5.64501 11.895 13.8 9.65504C5.36501 5.59504 0.570009 13.505 2.91501 19.98C4.31472 22.7065 6.52059 24.9353 9.23235 26.3632C11.9441 27.7911 15.03 28.3487 18.07 27.96C20.3181 27.6632 22.4443 26.7651 24.2246 25.3606C26.0048 23.9562 27.3731 22.0973 28.185 19.98C26.7332 21.2005 25.0016 22.0423 23.145 22.43C26.925 20.54 28.955 17.32 28.395 12.945C27.7557 14.6205 26.6803 16.0947 25.28 17.215C28.045 12.945 27.555 10.705 25.525 8.29004C26.995 12.28 25.105 16.69 21.01 19.875Z" fill="url(#paint1_radial_1_248)"/>
<path id="Vector_4" d="M19.05 24.46C18.77 24.39 19.715 24.845 17.895 24.355C16.075 23.865 14.22 23.41 10.86 20.05C10.65 21.1 11.77 22.745 12.925 23.795C16.04 25.965 13.905 24.95 18.665 26.595C19.05 25.86 19.05 25.195 19.05 24.46Z" fill="url(#paint2_linear_1_248)"/>
<path id="Vector_5" d="M13.03 7.41506C13.03 7.41506 13.45 6.82006 13.59 6.54006C13.8 6.19006 14.08 5.59506 14.08 5.59506C14.08 5.59506 10.895 4.54506 10.125 4.44006C7.70999 5.07006 7.70999 6.08506 9.03999 7.62506C9.21499 7.80006 13.03 7.41506 13.03 7.41506Z" fill="url(#paint3_linear_1_248)"/>
</g>
<defs>
<radialGradient id="paint0_radial_1_248" cx="0" cy="0" r="1" gradientUnits="userSpaceOnUse" gradientTransform="translate(20.1175 8.67514) scale(21.1185 15.107)">
<stop stop-color="#F80090"/>
<stop offset="1" stop-color="#4D008E"/>
</radialGradient>
<radialGradient id="paint1_radial_1_248" cx="0" cy="0" r="1" gradientUnits="userSpaceOnUse" gradientTransform="translate(20.31 9.16504) scale(21.3762 16.1703)">
<stop stop-color="#57008E"/>
<stop offset="0.29" stop-color="#5C008E"/>
<stop offset="1" stop-color="#F80090"/>
</radialGradient>
<linearGradient id="paint2_linear_1_248" x1="12.225" y1="20.155" x2="16.0225" y2="26.49" gradientUnits="userSpaceOnUse">
<stop stop-color="#F70090"/>
<stop offset="0.67" stop-color="#E50090"/>
<stop offset="0.83" stop-color="#D6008F" stop-opacity="0.2"/>
<stop offset="1" stop-color="#C10090" stop-opacity="0"/>
</linearGradient>
<linearGradient id="paint3_linear_1_248" x1="11.9275" y1="6.80256" x2="11.385" y2="5.77006" gradientUnits="userSpaceOnUse">
<stop stop-color="#B2008F" stop-opacity="0.15"/>
<stop offset="0.4" stop-color="#F70090" stop-opacity="0.4"/>
<stop offset="0.65" stop-color="#F60090" stop-opacity="0.89"/>
<stop offset="1" stop-color="#FF0090"/>
</linearGradient>
<clipPath id="clip0_1_248">
<rect width="28" height="28" fill="white" transform="translate(0.5 0.590088)"/>
</clipPath>
</defs>
</svg>
