<svg width="29" height="29" viewBox="0 0 29 29" fill="none" xmlns="http://www.w3.org/2000/svg">
<g id="SVG">
<path id="Vector" fill-rule="evenodd" clip-rule="evenodd" d="M4.448 9.34009C3.23438 9.34009 2.25 10.2772 2.25 11.4331V24.7471C2.25 25.9021 3.23438 26.8401 4.448 26.8401H24.552C25.7656 26.8401 26.75 25.903 26.75 24.7471V11.4331C26.75 10.2781 25.7656 9.34009 24.552 9.34009H4.448ZM8.739 19.4026L5.39125 23.3401H8.375L11.875 19.4026L8.375 15.4651H5.39038L8.739 19.4026ZM13.625 21.5901H21.5V23.3401H13.625V21.5901Z" fill="#F0F0F0"/>
<path id="Vector_2" d="M4 6.71509C4.46413 6.71509 4.90925 6.53071 5.23744 6.20252C5.56563 5.87434 5.75 5.42922 5.75 4.96509C5.75 4.50096 5.56563 4.05584 5.23744 3.72765C4.90925 3.39946 4.46413 3.21509 4 3.21509C3.53587 3.21509 3.09075 3.39946 2.76256 3.72765C2.43437 4.05584 2.25 4.50096 2.25 4.96509C2.25 5.42922 2.43437 5.87434 2.76256 6.20252C3.09075 6.53071 3.53587 6.71509 4 6.71509ZM9.25 6.71509C9.71413 6.71509 10.1592 6.53071 10.4874 6.20252C10.8156 5.87434 11 5.42922 11 4.96509C11 4.50096 10.8156 4.05584 10.4874 3.72765C10.1592 3.39946 9.71413 3.21509 9.25 3.21509C8.78587 3.21509 8.34075 3.39946 8.01256 3.72765C7.68437 4.05584 7.5 4.50096 7.5 4.96509C7.5 5.42922 7.68437 5.87434 8.01256 6.20252C8.34075 6.53071 8.78587 6.71509 9.25 6.71509ZM14.5 4.96509C14.5 3.99821 15.179 3.21509 16.0155 3.21509H25.2345C26.071 3.21509 26.75 3.99821 26.75 4.96509C26.75 5.93196 26.071 6.71509 25.2345 6.71509H16.0155C15.179 6.71509 14.5 5.93196 14.5 4.96509Z" fill="#F0F0F0"/>
</g>
</svg>
