<svg width="29" height="29" viewBox="0 0 29 29" fill="none" xmlns="http://www.w3.org/2000/svg">
<g id="SVG" clip-path="url(#clip0_1_221)">
<path id="Vector" d="M28.5 14.5901C28.5 12.7351 26.19 10.9851 22.62 9.90007C23.425 6.26007 23.075 3.39007 21.465 2.44507C21.0676 2.23041 20.6216 2.12191 20.17 2.13007V3.39007C20.45 3.39007 20.66 3.42507 20.835 3.53007C21.605 3.98507 21.955 5.66507 21.675 7.83507L21.395 9.51507C20.1974 9.22259 18.9812 9.01211 17.755 8.88507C16.985 7.83507 16.18 6.85507 15.375 6.01507C17.265 4.33507 19.015 3.39007 20.205 3.39007V2.13007C18.63 2.13007 16.565 3.25007 14.5 5.17507C12.4 3.25007 10.37 2.13007 8.795 2.13007V3.39007C9.985 3.39007 11.735 4.33507 13.59 6.05007C12.785 6.89007 11.98 7.83507 11.245 8.88507C9.95 9.02507 8.725 9.23507 7.605 9.51507C7.4637 8.97599 7.37001 8.42554 7.325 7.87007C7.045 5.70007 7.395 3.98507 8.165 3.53007C8.34 3.42507 8.55 3.39007 8.83 3.39007V2.16507C8.34 2.16507 7.92 2.27007 7.535 2.48007C5.925 3.39007 5.575 6.29507 6.415 9.90007C2.81 10.9851 0.5 12.7351 0.5 14.5901C0.5 16.4451 2.81 18.1951 6.38 19.2801C5.575 22.9201 5.925 25.7901 7.535 26.7351C7.92 26.9451 8.34 27.0501 8.83 27.0501C10.405 27.0501 12.47 25.9301 14.535 24.0051C16.6 25.9301 18.665 27.0501 20.24 27.0501C20.73 27.0501 21.15 26.9451 21.535 26.7351C23.145 25.8251 23.495 22.9201 22.655 19.3151C26.19 18.1951 28.5 16.4451 28.5 14.5901ZM21.08 10.7751C20.87 11.5101 20.59 12.2801 20.31 13.0151L19.575 11.6501C19.295 11.1951 19.05 10.7401 18.77 10.3201C19.54 10.4601 20.31 10.6001 21.08 10.7751ZM18.455 16.8651C18 17.6351 17.545 18.3701 17.09 19.0351C15.3779 19.1758 13.6571 19.1758 11.945 19.0351C10.9596 17.6344 10.1044 16.1465 9.39 14.5901C10.1044 13.0336 10.9596 11.5457 11.945 10.1451C13.6571 10.0043 15.3779 10.0043 17.09 10.1451C18.0754 11.5457 18.9306 13.0336 19.645 14.5901C19.295 15.3601 18.875 16.1301 18.455 16.8651ZM20.31 16.1301C20.625 16.9001 20.87 17.6701 21.115 18.4051C20.38 18.5801 19.575 18.7551 18.77 18.8601C19.05 18.4051 19.33 17.9851 19.575 17.4951L20.31 16.1301ZM14.5 22.2201C13.975 21.6601 13.45 21.0651 12.925 20.4001C13.45 20.4351 13.975 20.4351 14.5 20.4351C15.025 20.4351 15.55 20.4351 16.075 20.4001C15.585 21.0651 15.025 21.6601 14.5 22.2201ZM10.265 18.8601C9.46 18.7551 8.69 18.5801 7.92 18.4051C8.13 17.6701 8.41 16.9001 8.69 16.1651L9.425 17.5301L10.265 18.8601ZM14.5 6.96007C15.025 7.52007 15.55 8.11507 16.075 8.78007C15.55 8.74507 15.025 8.74507 14.5 8.74507C13.975 8.74507 13.45 8.74507 12.925 8.78007C13.415 8.11507 13.975 7.52007 14.5 6.96007ZM10.265 10.3201C9.985 10.7751 9.705 11.1951 9.46 11.6851C9.18 12.1401 8.935 12.5951 8.725 13.0501C8.41 12.2801 8.165 11.5101 7.92 10.7751C8.655 10.6001 9.46 10.4601 10.265 10.3201ZM5.085 17.4951C3.055 16.6201 1.76 15.5001 1.76 14.5901C1.76 13.6801 3.055 12.5601 5.085 11.6851C5.575 11.4751 6.1 11.3001 6.66 11.1251C6.975 12.2451 7.43 13.4001 7.955 14.5901C7.43 15.7801 7.01 16.9351 6.695 18.0551C6.135 17.8801 5.61 17.7051 5.085 17.4951ZM8.165 25.6501C7.395 25.1951 7.045 23.5151 7.325 21.3451L7.605 19.6651C8.725 19.9451 9.95 20.1551 11.245 20.2951C12.015 21.3451 12.82 22.3251 13.625 23.1651C11.735 24.8451 9.985 25.7901 8.83 25.7901C8.60121 25.7882 8.37511 25.7406 8.165 25.6501ZM21.71 21.2751C21.99 23.4451 21.64 25.1601 20.87 25.6151C20.6653 25.7218 20.4353 25.7702 20.205 25.7551C19.015 25.7551 17.265 24.8101 15.41 23.0951C16.215 22.2551 17.02 21.3101 17.755 20.2601C19.05 20.1201 20.275 19.9101 21.395 19.6301C21.535 20.1901 21.64 20.7501 21.71 21.2751ZM23.915 17.4951C23.425 17.7051 22.9 17.8801 22.34 18.0551C22.025 16.9351 21.57 15.7801 21.045 14.5901C21.57 13.4001 21.99 12.2451 22.305 11.1251C22.865 11.3001 23.39 11.5101 23.915 11.7201C25.945 12.5951 27.24 13.7151 27.24 14.6251C27.24 15.5001 25.91 16.6201 23.915 17.4951ZM14.5 17.2151C15.1962 17.2151 15.8639 16.9385 16.3562 16.4462C16.8484 15.9539 17.125 15.2863 17.125 14.5901C17.125 13.8939 16.8484 13.2262 16.3562 12.7339C15.8639 12.2416 15.1962 11.9651 14.5 11.9651C13.8038 11.9651 13.1361 12.2416 12.6438 12.7339C12.1516 13.2262 11.875 13.8939 11.875 14.5901C11.875 15.2863 12.1516 15.9539 12.6438 16.4462C13.1361 16.9385 13.8038 17.2151 14.5 17.2151Z" fill="#3096FF"/>
</g>
<defs>
<clipPath id="clip0_1_221">
<rect width="28" height="28" fill="white" transform="translate(0.5 0.590088)"/>
</clipPath>
</defs>
</svg>
